<svg version="1.1" id="Layer_1" xmlns="http://www.w3.org/2000/svg" xmlns:xlink="http://www.w3.org/1999/xlink" x="0px" y="0px"
	 width="100%" viewBox="0 0 1024 576" enable-background="new 0 0 1024 576" xml:space="preserve">
<path fill="#000000" opacity="1.000000" stroke="none" 
	d="
M512.171265,123.674698 
	C557.211975,127.469345 598.616821,158.990524 613.228577,204.188675 
	C634.619446,270.356140 594.288086,340.240021 526.061768,354.918915 
	C463.341400,368.413177 402.240570,330.640533 386.213806,268.464600 
	C369.294739,202.827072 414.009796,135.269623 481.382263,124.721916 
	C491.441284,123.147095 501.546051,122.352242 512.171265,123.674698 
M504.350403,176.786331 
	C502.104156,177.177734 500.245544,179.021652 497.689789,178.631378 
	C496.800415,177.106232 497.914062,175.121826 496.005402,173.746246 
	C491.520264,170.513824 486.969513,167.426590 481.733093,165.614105 
	C477.289917,164.076202 474.800873,165.490219 473.538818,170.198166 
	C471.655640,177.223236 471.831909,184.356186 472.911621,191.494186 
	C473.278961,193.922470 473.404388,196.456146 476.315552,197.611435 
	C469.652954,209.412827 467.901855,221.590256 471.849792,234.092834 
	C476.066833,247.447739 488.023865,252.236343 500.856354,256.505371 
	C499.153809,257.600830 498.904358,257.856567 498.609711,257.929199 
	C498.132385,258.046814 497.607697,258.153503 497.133545,258.076569 
	C484.403168,256.011017 474.045959,250.450287 468.766937,237.996643 
	C467.498352,235.003937 465.972992,233.938477 462.790283,234.346481 
	C447.430664,236.315491 435.337219,246.676895 432.286530,261.933685 
	C428.855743,279.091370 432.623657,295.331055 440.670197,310.646942 
	C441.486572,312.200806 442.893646,313.703857 444.403961,314.580017 
	C447.617401,316.444122 451.187866,316.939392 453.964874,313.882172 
	C456.193542,311.428650 454.816803,306.504456 451.728149,304.256165 
	C450.854980,303.620514 449.539978,303.157928 450.437683,301.052124 
	C460.757996,303.810364 471.227448,306.407318 482.308594,307.336914 
	C481.317871,302.300446 478.325043,298.309143 479.653168,292.805969 
	C482.996277,295.613403 483.535248,299.229614 485.131927,302.173828 
	C487.831299,307.151154 490.113129,312.402313 494.582214,316.144470 
	C497.994751,319.001953 504.694336,319.860840 507.739319,317.836029 
	C511.471405,315.354340 509.264374,311.886749 509.129761,308.726685 
	C508.972656,305.039917 508.885986,301.272369 512.746582,298.121429 
	C513.018860,299.703430 513.233826,300.487457 513.277588,301.280914 
	C513.587952,306.915344 514.036560,307.274750 519.400879,306.318146 
	C526.315369,305.085114 533.014771,303.201782 539.378723,300.158173 
	C540.765686,299.494843 542.056274,298.027069 544.559631,299.214264 
	C541.280212,304.074646 535.544067,305.131165 531.445129,308.198181 
	C533.818298,313.613922 537.695496,315.577667 543.582825,314.648407 
	C546.828552,314.136108 548.292297,312.437836 547.602295,309.107880 
	C546.235718,302.512512 548.394836,297.035614 552.939880,292.311798 
	C555.043335,290.125641 557.156006,287.679199 557.705017,284.789581 
	C558.843079,278.799011 562.978760,275.751373 567.418030,272.318146 
	C576.327332,265.427979 584.007568,257.367889 587.068298,245.975311 
	C587.835144,243.120743 587.586548,240.527374 584.980591,238.905563 
	C582.553894,237.395386 580.100342,238.342819 578.042236,239.980789 
	C575.437134,242.054016 572.735229,244.078888 570.476807,246.499435 
	C565.553223,251.776642 559.093994,253.689178 552.450012,255.241547 
	C551.244019,255.523331 549.513184,256.574982 548.395996,253.977020 
	C560.171997,248.234818 572.075012,242.089951 574.506897,227.511780 
	C576.763611,213.983856 572.534485,201.821838 564.458679,191.236160 
	C564.664124,189.308228 566.780090,189.255585 566.837524,187.378815 
	C567.083740,179.345840 567.007629,171.369003 564.084900,163.739120 
	C562.782593,160.339645 560.237305,159.123154 556.889465,160.875443 
	C551.404846,163.746170 546.596436,167.486099 542.963257,172.232178 
	C543.075195,174.174210 545.527649,174.433395 544.853149,177.083435 
	C531.695496,172.357986 518.377625,171.905441 504.350403,176.786331 
M433.493317,203.005539 
	C426.701447,197.964798 420.485382,199.898697 417.322449,208.553024 
	C412.651672,221.333084 416.001343,232.763474 424.475708,242.814667 
	C430.296143,249.718063 431.088928,249.553665 436.903900,243.085236 
	C437.568878,242.345551 438.223663,241.573135 438.996948,240.959198 
	C440.646820,239.649323 440.497620,238.272247 439.534729,236.607712 
	C435.788422,230.131744 435.148560,223.196762 436.398132,215.913452 
	C437.144012,211.565750 436.778046,207.296646 433.493317,203.005539 
M469.725616,309.792877 
	C468.782501,309.778992 467.381134,309.463806 467.883179,311.088959 
	C468.601105,313.412872 470.649323,314.336365 472.863373,314.588776 
	C475.106903,314.844574 477.456573,314.902893 478.329559,311.843018 
	C475.685669,310.296051 472.959259,310.453186 469.725616,309.792877 
z"/>
<path fill="#000000" opacity="1.000000" stroke="none" 
	d="
M447.935669,417.288208 
	C445.070190,424.562317 442.206390,431.486816 439.649414,438.522858 
	C438.482208,441.734680 436.901794,443.376343 433.191345,443.354340 
	C429.626099,443.333221 427.745239,442.097137 426.517700,438.782288 
	C423.534149,430.725342 420.261597,422.775360 417.095978,414.758362 
	C417.095978,424.689392 417.132660,434.454926 417.081543,444.220001 
	C417.053101,449.652802 416.498474,449.777863 409.278564,450.029327 
	C404.850006,450.183594 403.532928,448.578644 403.585663,444.251068 
	C403.786621,427.766144 403.832672,411.274567 403.563354,394.791626 
	C403.485291,390.011414 405.267242,388.791351 409.660645,388.884674 
	C421.117432,389.127991 419.106293,387.843842 423.176178,398.019958 
	C426.358368,405.976562 429.332336,414.016510 433.597076,422.008728 
	C436.960571,413.223541 440.268280,404.416290 443.724426,395.667725 
	C444.659424,393.300903 444.677673,389.849060 447.833893,389.326813 
	C452.239258,388.597839 456.808685,388.361938 461.194946,389.551025 
	C463.111816,390.070648 462.988800,392.192932 462.987885,393.834503 
	C462.978424,410.987244 462.871490,428.140167 462.919891,445.292664 
	C462.936096,451.037231 458.875061,449.796234 455.561768,449.920197 
	C452.015808,450.052887 448.841522,449.933716 449.021973,444.864960 
	C449.353577,435.551727 449.386719,426.227631 449.511200,416.907623 
	C449.520660,416.199646 450.010162,415.324249 448.850464,414.625427 
	C448.568146,415.470734 448.315430,416.227448 447.935669,417.288208 
z"/>
<path fill="#000000" opacity="1.000000" stroke="none" 
	d="
M588.371948,449.903992 
	C584.742126,450.129395 582.694763,448.629150 581.059692,445.934082 
	C578.009521,440.906708 574.702576,436.035156 570.692505,429.849243 
	C568.563171,435.412933 569.228333,439.554993 569.374573,443.497192 
	C569.535583,447.834808 568.583496,449.747192 563.663696,449.532898 
	C554.945435,449.153076 554.926697,449.468506 554.926331,440.581696 
	C554.925598,424.603180 554.908447,408.624634 554.945435,392.646210 
	C554.961609,385.644226 555.014343,385.644684 561.777222,385.578400 
	C562.775757,385.568604 563.788208,385.656189 564.770386,385.523010 
	C568.301575,385.044128 569.472168,386.610046 569.407043,390.052917 
	C569.249695,398.372040 569.352600,406.696198 569.365356,415.018311 
	C569.367371,416.311035 569.171997,417.670532 570.323975,419.039032 
	C573.691040,417.063660 575.101135,413.571259 577.259155,410.812134 
	C583.108826,403.333282 587.789795,401.761993 598.132629,404.822174 
	C594.460876,409.569794 591.231628,414.326141 587.399414,418.533264 
	C583.738647,422.552063 583.643799,425.795990 587.039246,430.119507 
	C591.239502,435.467865 594.699097,441.398834 598.450012,447.096985 
	C598.704712,447.483917 598.718689,448.029358 598.899719,448.707489 
	C595.720032,450.893433 592.145447,449.539154 588.371948,449.903992 
z"/>
<path fill="#000000" opacity="1.000000" stroke="none" 
	d="
M488.373932,450.393158 
	C478.631226,450.885559 473.179169,447.622894 471.225342,440.409088 
	C469.180603,432.859528 472.583374,426.267548 479.978241,423.680115 
	C483.929962,422.297455 488.027863,421.653870 492.234802,421.598602 
	C493.943756,421.576141 496.377411,422.036774 496.386719,419.304871 
	C496.394501,417.028748 494.587830,415.753693 492.497467,415.347290 
	C488.511383,414.572388 484.549438,414.933105 480.639160,416.034729 
	C479.386536,416.387665 478.140686,417.047913 476.596802,416.478455 
	C474.991394,414.521027 475.093842,411.953888 474.656616,409.535278 
	C474.173615,406.863464 475.451294,405.494324 477.861053,404.777771 
	C483.839417,403.000122 489.928345,402.178314 496.121735,403.075836 
	C505.013672,404.364441 509.251892,408.798279 510.419769,417.792236 
	C511.626801,427.087372 511.034241,436.438110 510.860809,445.745728 
	C510.744629,451.980682 504.354492,450.586395 502.111298,449.591278 
	C497.111176,447.373047 493.165283,450.120880 488.373932,450.393158 
M491.663696,431.119965 
	C488.704926,431.206757 485.975861,431.796967 484.648499,434.858734 
	C484.156128,435.994476 484.340027,437.237640 485.358704,438.048950 
	C487.938324,440.103363 490.760101,439.160461 493.455597,438.399139 
	C495.549622,437.807739 496.780426,436.395752 496.692993,433.984558 
	C496.585358,431.014679 494.555054,431.084351 491.663696,431.119965 
z"/>
<path fill="#000000" opacity="1.000000" stroke="none" 
	d="
M536.756836,417.779816 
	C534.356262,419.459473 534.417053,421.654114 534.418152,423.838226 
	C534.421509,430.822693 534.301208,437.809692 534.458740,444.790558 
	C534.536438,448.234711 533.234253,449.405243 529.790405,449.450897 
	C521.019714,449.567200 520.718140,449.722198 520.424683,441.234711 
	C520.068604,430.939087 520.157104,420.620728 520.371155,410.318817 
	C520.416260,408.150604 519.296753,404.439240 522.698242,404.045685 
	C526.640869,403.589539 531.384705,401.705994 534.354126,406.918365 
	C537.668945,404.947906 541.004639,403.073914 544.931152,402.859406 
	C548.527649,402.662964 550.913696,403.889832 550.287659,407.970001 
	C549.818115,411.030640 552.338013,416.079742 545.656128,415.394440 
	C542.580688,415.079041 539.746460,416.078186 536.756836,417.779816 
z"/>
<path fill="#000000" opacity="1.000000" stroke="none" 
	d="
M499.162689,211.856094 
	C506.819092,208.019302 513.088440,214.440704 511.924835,220.362274 
	C511.169922,224.203934 508.742279,226.549973 504.899170,227.079666 
	C501.253052,227.582230 498.291595,226.040970 496.664185,222.775253 
	C494.679230,218.792007 495.271851,215.068878 499.162689,211.856094 
z"/>
<path fill="#000000" opacity="1.000000" stroke="none" 
	d="
M556.084839,208.949066 
	C560.470947,214.235855 560.283325,219.643707 555.934265,222.573822 
	C551.985535,225.234222 546.755066,223.906677 544.435303,219.561447 
	C542.699646,216.310440 542.857483,213.030991 545.345886,210.285004 
	C548.292053,207.033890 551.917297,206.723526 556.084839,208.949066 
z"/>
<path fill="#000000" opacity="1.000000" stroke="none" 
	d="
M534.584595,231.341400 
	C536.040344,231.150650 537.555908,229.557907 538.190308,231.643845 
	C538.744385,233.465973 536.999512,234.781403 535.688049,234.657440 
	C531.671204,234.277771 527.804260,234.778915 523.855835,235.309586 
	C522.092896,235.546509 520.430908,234.193558 520.528748,231.960434 
	C521.282471,230.643707 522.246765,231.136948 523.188110,231.418716 
	C524.519897,231.817352 525.834839,231.948303 526.803589,230.686020 
	C527.955933,229.184570 526.678467,228.306030 525.875610,227.293442 
	C524.795837,225.931488 523.800903,224.318130 525.443604,222.914200 
	C527.674316,221.007751 530.453796,221.092728 532.901855,222.348892 
	C534.760742,223.302719 534.237854,225.084549 533.353149,226.682343 
	C532.364685,228.467468 531.192566,230.361618 534.584595,231.341400 
z"/>
</svg>