<?xml version="1.0" standalone="no"?>
<!DOCTYPE svg PUBLIC "-//W3C//DTD SVG 20010904//EN"
 "http://www.w3.org/TR/2001/REC-SVG-20010904/DTD/svg10.dtd">
<svg version="1.0" xmlns="http://www.w3.org/2000/svg"
 width="144.000000pt" height="144.000000pt" viewBox="0 0 144.000000 144.000000"
 preserveAspectRatio="xMidYMid meet">

<g transform="translate(0.000000,144.000000) scale(0.100000,-0.100000)"
fill="#000000" stroke="none">
<path d="M580 1344 c-234 -50 -436 -254 -485 -489 -65 -312 112 -631 410 -736
180 -63 381 -43 543 53 72 43 179 149 220 219 72 123 104 276 85 408 -23 157
-77 265 -190 378 -151 150 -369 213 -583 167z m490 -224 c6 -23 10 -64 9 -93
-2 -38 4 -64 21 -97 31 -61 32 -144 1 -193 -20 -33 -44 -53 -101 -85 -24 -13
-24 -13 10 -6 19 3 61 26 93 50 61 46 87 48 87 8 0 -42 -35 -97 -99 -156 -34
-31 -61 -62 -61 -69 0 -6 -12 -28 -27 -47 -18 -25 -27 -48 -27 -76 -1 -39 -3
-41 -34 -44 -35 -4 -62 11 -62 34 0 8 6 14 14 14 8 0 24 9 37 20 l24 20 -45
-19 c-25 -10 -64 -22 -87 -26 -40 -6 -43 -5 -45 17 0 12 -4 1 -7 -27 -6 -48
-7 -50 -39 -53 -41 -4 -65 16 -98 81 -28 55 -36 60 -23 15 5 -17 6 -34 4 -37
-3 -2 -40 3 -82 12 -42 9 -79 15 -81 12 -3 -3 0 -5 6 -5 19 0 14 -57 -4 -64
-53 -20 -92 43 -114 180 -23 141 39 241 166 268 28 6 32 4 43 -22 22 -53 90
-102 139 -102 9 0 -3 10 -28 21 -54 24 -77 44 -97 83 -20 39 -20 143 0 182 10
20 12 35 6 45 -15 23 -11 143 6 165 14 19 16 18 72 -12 32 -17 57 -37 56 -43
-4 -14 -4 -14 47 4 48 17 120 19 168 6 23 -7 30 -7 26 1 -10 15 65 78 93 78
18 0 25 -9 33 -40z m-718 -197 c14 -12 18 -31 18 -78 0 -34 5 -76 11 -93 9
-28 8 -34 -15 -59 l-25 -27 -31 29 c-41 39 -64 103 -57 160 8 75 56 107 99 68z
m246 -595 c-7 -19 -43 -21 -58 -3 -11 13 -8 15 25 15 25 0 35 -4 33 -12z"/>
<path d="M966 884 c-9 -8 -16 -22 -16 -29 0 -17 27 -45 44 -45 32 0 48 54 24
78 -16 16 -33 15 -52 -4z"/>
<path d="M698 855 c-14 -32 5 -57 41 -53 18 2 27 10 29 26 7 50 -49 72 -70 27z"/>
<path d="M850 806 c0 -8 5 -16 12 -18 6 -2 8 -10 4 -17 -5 -7 -14 -10 -22 -7
-8 3 -14 1 -14 -4 0 -11 75 -8 87 3 4 5 0 5 -9 2 -20 -8 -33 12 -19 29 13 15
5 26 -21 26 -10 0 -18 -6 -18 -14z"/>
</g>
</svg>
